<svg xmlns="http://www.w3.org/2000/svg" xmlns:xlink="http://www.w3.org/1999/xlink" width="500" zoomAndPan="magnify" viewBox="0 0 375 374.999991" height="500" preserveAspectRatio="xMidYMid meet" version="1.0"><defs><filter x="0%" y="0%" width="100%" height="100%" id="72981ad530"><feColorMatrix values="0 0 0 0 1 0 0 0 0 1 0 0 0 0 1 0 0 0 1 0" color-interpolation-filters="sRGB"/></filter><g/><clipPath id="2d95491f79"><path d="M 218.636719 158 L 243 158 L 243 161 L 218.636719 161 Z M 218.636719 158 " clip-rule="nonzero"/></clipPath><clipPath id="b6fdf641e0"><path d="M 229 146.429688 L 277.886719 146.429688 L 277.886719 172.65625 L 229 172.65625 Z M 229 146.429688 " clip-rule="nonzero"/></clipPath><clipPath id="7bb2669094"><path d="M 228 146.429688 L 277.886719 146.429688 L 277.886719 160 L 228 160 Z M 228 146.429688 " clip-rule="nonzero"/></clipPath><mask id="8807606a87"><g filter="url(#72981ad530)"><rect x="-37.5" width="450" fill="#000000" y="-37.499999" height="449.999989" fill-opacity="0.08"/></g></mask><clipPath id="b2e8c6d056"><path d="M 1 0.429688 L 49.886719 0.429688 L 49.886719 13.601562 L 1 13.601562 Z M 1 0.429688 " clip-rule="nonzero"/></clipPath><clipPath id="043e50a152"><rect x="0" width="50" y="0" height="14"/></clipPath></defs><g fill="#ffffff" fill-opacity="1"><g transform="translate(66.962391, 206.480406)"><g><path d="M 15.203125 -26.75 C 17.160156 -26.75 18.941406 -26.351562 20.546875 -25.5625 C 22.160156 -24.78125 23.539062 -23.75 24.6875 -22.46875 C 25.84375 -21.195312 26.734375 -19.726562 27.359375 -18.0625 C 27.992188 -16.40625 28.3125 -14.703125 28.3125 -12.953125 C 28.3125 -11.898438 28.171875 -10.78125 27.890625 -9.59375 L 9.328125 -9.59375 C 10.023438 -8.40625 11.019531 -7.398438 12.3125 -6.578125 C 13.613281 -5.753906 15.015625 -5.34375 16.515625 -5.34375 C 18.015625 -5.34375 19.332031 -5.460938 20.46875 -5.703125 C 21.613281 -5.953125 22.691406 -6.269531 23.703125 -6.65625 L 26.109375 -2.203125 C 24.816406 -1.296875 23.335938 -0.597656 21.671875 -0.109375 C 20.015625 0.378906 18.242188 0.625 16.359375 0.625 C 14.296875 0.625 12.375 0.269531 10.59375 -0.4375 C 8.8125 -1.15625 7.253906 -2.125 5.921875 -3.34375 C 4.597656 -4.570312 3.550781 -6.023438 2.78125 -7.703125 C 2.007812 -9.378906 1.625 -11.164062 1.625 -13.0625 C 1.625 -14.914062 1.972656 -16.671875 2.671875 -18.328125 C 3.367188 -19.984375 4.335938 -21.429688 5.578125 -22.671875 C 6.828125 -23.921875 8.269531 -24.910156 9.90625 -25.640625 C 11.550781 -26.378906 13.316406 -26.75 15.203125 -26.75 Z M 21.125 -15.203125 C 20.707031 -16.710938 19.957031 -17.9375 18.875 -18.875 C 17.789062 -19.820312 16.566406 -20.296875 15.203125 -20.296875 C 13.804688 -20.296875 12.539062 -19.820312 11.40625 -18.875 C 10.269531 -17.9375 9.492188 -16.710938 9.078125 -15.203125 Z M 21.125 -15.203125 "/></g></g></g><g fill="#ffffff" fill-opacity="1"><g transform="translate(98.158045, 206.480406)"><g><path d="M 31.3125 -26.015625 C 32.25 -26.015625 33.257812 -25.851562 34.34375 -25.53125 C 35.425781 -25.21875 36.429688 -24.660156 37.359375 -23.859375 C 38.285156 -23.054688 39.046875 -21.953125 39.640625 -20.546875 C 40.234375 -19.148438 40.53125 -17.367188 40.53125 -15.203125 L 40.53125 0 L 33.296875 0 L 33.296875 -13.890625 C 33.296875 -14.941406 33.179688 -15.832031 32.953125 -16.5625 C 32.722656 -17.300781 32.414062 -17.894531 32.03125 -18.34375 C 31.65625 -18.800781 31.210938 -19.125 30.703125 -19.3125 C 30.191406 -19.507812 29.675781 -19.609375 29.15625 -19.609375 C 28.664062 -19.609375 28.175781 -19.519531 27.6875 -19.34375 C 27.195312 -19.175781 26.757812 -18.878906 26.375 -18.453125 C 25.988281 -18.035156 25.679688 -17.457031 25.453125 -16.71875 C 25.234375 -15.988281 25.125 -15.066406 25.125 -13.953125 L 25.125 0 L 17.875 0 L 17.875 -13.890625 C 17.875 -16.023438 17.503906 -17.507812 16.765625 -18.34375 C 16.035156 -19.1875 14.972656 -19.609375 13.578125 -19.609375 C 12.566406 -19.609375 11.660156 -19.132812 10.859375 -18.1875 C 10.054688 -17.25 9.65625 -15.785156 9.65625 -13.796875 L 9.65625 0 L 2.40625 0 L 2.40625 -26.015625 L 8.59375 -26.015625 L 9.65625 -23.59375 C 10.457031 -24.363281 11.390625 -24.957031 12.453125 -25.375 C 13.515625 -25.800781 14.660156 -26.015625 15.890625 -26.015625 C 16.515625 -26.015625 17.175781 -25.953125 17.875 -25.828125 C 18.582031 -25.703125 19.265625 -25.484375 19.921875 -25.171875 C 20.585938 -24.859375 21.226562 -24.445312 21.84375 -23.9375 C 22.457031 -23.425781 23.003906 -22.789062 23.484375 -22.03125 C 23.910156 -22.6875 24.421875 -23.269531 25.015625 -23.78125 C 25.609375 -24.289062 26.253906 -24.707031 26.953125 -25.03125 C 27.648438 -25.363281 28.375 -25.609375 29.125 -25.765625 C 29.875 -25.929688 30.601562 -26.015625 31.3125 -26.015625 Z M 31.3125 -26.015625 "/></g></g></g><g fill="#ffffff" fill-opacity="1"><g transform="translate(140.940659, 206.480406)"><g><path d="M 17.40625 -26.75 C 19.226562 -26.75 20.925781 -26.390625 22.5 -25.671875 C 24.070312 -24.953125 25.429688 -23.972656 26.578125 -22.734375 C 27.734375 -21.492188 28.632812 -20.039062 29.28125 -18.375 C 29.925781 -16.71875 30.25 -14.945312 30.25 -13.0625 C 30.25 -11.164062 29.925781 -9.390625 29.28125 -7.734375 C 28.632812 -6.078125 27.734375 -4.625 26.578125 -3.375 C 25.429688 -2.132812 24.070312 -1.15625 22.5 -0.4375 C 20.925781 0.269531 19.226562 0.625 17.40625 0.625 C 15.875 0.625 14.398438 0.351562 12.984375 -0.1875 C 11.566406 -0.726562 10.457031 -1.414062 9.65625 -2.25 L 8.59375 0 L 2.40625 0 L 2.40625 -38.28125 L 9.65625 -38.28125 L 9.65625 -23.90625 C 11.644531 -25.800781 14.226562 -26.75 17.40625 -26.75 Z M 16.40625 -5.828125 C 17.351562 -5.828125 18.238281 -6.015625 19.0625 -6.390625 C 19.882812 -6.773438 20.609375 -7.289062 21.234375 -7.9375 C 21.867188 -8.59375 22.359375 -9.351562 22.703125 -10.21875 C 23.054688 -11.09375 23.234375 -12.039062 23.234375 -13.0625 C 23.234375 -14.039062 23.054688 -14.972656 22.703125 -15.859375 C 22.359375 -16.753906 21.867188 -17.523438 21.234375 -18.171875 C 20.609375 -18.816406 19.882812 -19.332031 19.0625 -19.71875 C 18.238281 -20.101562 17.351562 -20.296875 16.40625 -20.296875 C 15.46875 -20.296875 14.585938 -20.160156 13.765625 -19.890625 C 12.941406 -19.628906 12.222656 -19.210938 11.609375 -18.640625 C 11.003906 -18.066406 10.523438 -17.316406 10.171875 -16.390625 C 9.828125 -15.460938 9.65625 -14.316406 9.65625 -12.953125 C 9.65625 -11.722656 9.828125 -10.660156 10.171875 -9.765625 C 10.523438 -8.878906 11.003906 -8.148438 11.609375 -7.578125 C 12.222656 -7.003906 12.941406 -6.566406 13.765625 -6.265625 C 14.585938 -5.972656 15.46875 -5.828125 16.40625 -5.828125 Z M 16.40625 -5.828125 "/></g></g></g><g fill="#ffffff" fill-opacity="1"><g transform="translate(171.926599, 206.480406)"><g><path d="M 15.203125 -26.75 C 17.160156 -26.75 18.941406 -26.351562 20.546875 -25.5625 C 22.160156 -24.78125 23.539062 -23.75 24.6875 -22.46875 C 25.84375 -21.195312 26.734375 -19.726562 27.359375 -18.0625 C 27.992188 -16.40625 28.3125 -14.703125 28.3125 -12.953125 C 28.3125 -11.898438 28.171875 -10.78125 27.890625 -9.59375 L 9.328125 -9.59375 C 10.023438 -8.40625 11.019531 -7.398438 12.3125 -6.578125 C 13.613281 -5.753906 15.015625 -5.34375 16.515625 -5.34375 C 18.015625 -5.34375 19.332031 -5.460938 20.46875 -5.703125 C 21.613281 -5.953125 22.691406 -6.269531 23.703125 -6.65625 L 26.109375 -2.203125 C 24.816406 -1.296875 23.335938 -0.597656 21.671875 -0.109375 C 20.015625 0.378906 18.242188 0.625 16.359375 0.625 C 14.296875 0.625 12.375 0.269531 10.59375 -0.4375 C 8.8125 -1.15625 7.253906 -2.125 5.921875 -3.34375 C 4.597656 -4.570312 3.550781 -6.023438 2.78125 -7.703125 C 2.007812 -9.378906 1.625 -11.164062 1.625 -13.0625 C 1.625 -14.914062 1.972656 -16.671875 2.671875 -18.328125 C 3.367188 -19.984375 4.335938 -21.429688 5.578125 -22.671875 C 6.828125 -23.921875 8.269531 -24.910156 9.90625 -25.640625 C 11.550781 -26.378906 13.316406 -26.75 15.203125 -26.75 Z M 21.125 -15.203125 C 20.707031 -16.710938 19.957031 -17.9375 18.875 -18.875 C 17.789062 -19.820312 16.566406 -20.296875 15.203125 -20.296875 C 13.804688 -20.296875 12.539062 -19.820312 11.40625 -18.875 C 10.269531 -17.9375 9.492188 -16.710938 9.078125 -15.203125 Z M 21.125 -15.203125 "/></g></g></g><g fill="#ffffff" fill-opacity="1"><g transform="translate(203.122253, 206.480406)"><g><path d="M 9.484375 -22.390625 C 9.835938 -22.953125 10.238281 -23.484375 10.6875 -23.984375 C 11.144531 -24.492188 11.6875 -24.945312 12.3125 -25.34375 C 12.945312 -25.75 13.664062 -26.070312 14.46875 -26.3125 C 15.269531 -26.5625 16.179688 -26.6875 17.203125 -26.6875 C 18.390625 -26.6875 19.769531 -26.476562 21.34375 -26.0625 L 20.65625 -19.609375 C 20.269531 -19.679688 19.882812 -19.769531 19.5 -19.875 C 19.1875 -19.945312 18.835938 -20.007812 18.453125 -20.0625 C 18.066406 -20.113281 17.71875 -20.140625 17.40625 -20.140625 C 16.289062 -20.140625 15.25 -19.976562 14.28125 -19.65625 C 13.320312 -19.34375 12.492188 -18.90625 11.796875 -18.34375 C 11.097656 -17.789062 10.535156 -17.117188 10.109375 -16.328125 C 9.691406 -15.546875 9.484375 -14.703125 9.484375 -13.796875 L 9.484375 0 L 2.25 0 L 2.25 -26.015625 L 8.8125 -26.015625 Z M 9.484375 -22.390625 "/></g></g></g><g fill="#ffffff" fill-opacity="1"><g transform="translate(224.723284, 206.480406)"><g><path d="M 29.578125 -26.015625 L 29.578125 0 L 23.328125 0 L 22.59375 -2.78125 C 21.582031 -1.414062 20.367188 -0.503906 18.953125 -0.046875 C 17.535156 0.398438 16.0625 0.625 14.53125 0.625 C 12.675781 0.625 10.96875 0.269531 9.40625 -0.4375 C 7.851562 -1.15625 6.5 -2.132812 5.34375 -3.375 C 4.195312 -4.625 3.296875 -6.078125 2.640625 -7.734375 C 1.992188 -9.390625 1.671875 -11.164062 1.671875 -13.0625 C 1.671875 -14.945312 1.992188 -16.71875 2.640625 -18.375 C 3.296875 -20.039062 4.195312 -21.492188 5.34375 -22.734375 C 6.5 -23.972656 7.851562 -24.953125 9.40625 -25.671875 C 10.96875 -26.390625 12.675781 -26.75 14.53125 -26.75 C 16.207031 -26.75 17.742188 -26.484375 19.140625 -25.953125 C 20.535156 -25.429688 21.6875 -24.59375 22.59375 -23.4375 L 23.328125 -26.015625 Z M 22.34375 -12.953125 C 22.34375 -14.316406 22.15625 -15.460938 21.78125 -16.390625 C 21.414062 -17.316406 20.925781 -18.066406 20.3125 -18.640625 C 19.707031 -19.210938 18.992188 -19.628906 18.171875 -19.890625 C 17.347656 -20.160156 16.460938 -20.296875 15.515625 -20.296875 C 14.578125 -20.296875 13.695312 -20.101562 12.875 -19.71875 C 12.050781 -19.332031 11.320312 -18.816406 10.6875 -18.171875 C 10.0625 -17.523438 9.570312 -16.753906 9.21875 -15.859375 C 8.875 -14.972656 8.703125 -14.039062 8.703125 -13.0625 C 8.703125 -12.039062 8.875 -11.09375 9.21875 -10.21875 C 9.570312 -9.351562 10.0625 -8.59375 10.6875 -7.9375 C 11.320312 -7.289062 12.050781 -6.773438 12.875 -6.390625 C 13.695312 -6.015625 14.578125 -5.828125 15.515625 -5.828125 C 17.410156 -5.828125 19.007812 -6.410156 20.3125 -7.578125 C 21.625 -8.742188 22.300781 -10.535156 22.34375 -12.953125 Z M 22.34375 -12.953125 "/></g></g></g><g fill="#ffffff" fill-opacity="1"><g transform="translate(256.600525, 206.480406)"><g><path d="M 11.953125 -9.328125 C 11.953125 -8.109375 12.328125 -7.164062 13.078125 -6.5 C 13.828125 -5.832031 14.816406 -5.5 16.046875 -5.5 C 17.023438 -5.5 18.003906 -5.691406 18.984375 -6.078125 L 18.984375 0 C 18.109375 0.28125 17.179688 0.515625 16.203125 0.703125 C 15.222656 0.898438 14.242188 1 13.265625 1 C 12.148438 1 11.082031 0.859375 10.0625 0.578125 C 9.050781 0.296875 8.144531 -0.179688 7.34375 -0.859375 C 6.539062 -1.546875 5.898438 -2.457031 5.421875 -3.59375 C 4.953125 -4.726562 4.71875 -6.132812 4.71875 -7.8125 L 4.71875 -19.5625 L 1 -19.5625 L 1 -24.4375 L 4.71875 -26.015625 L 4.71875 -31.828125 L 11.953125 -31.828125 L 11.953125 -26.015625 L 18.984375 -26.015625 L 18.984375 -19.5625 L 11.953125 -19.5625 Z M 11.953125 -9.328125 "/></g></g></g><g fill="#ffffff" fill-opacity="1"><g transform="translate(276.681082, 206.480406)"><g><path d="M 15.203125 -26.75 C 17.160156 -26.75 18.941406 -26.351562 20.546875 -25.5625 C 22.160156 -24.78125 23.539062 -23.75 24.6875 -22.46875 C 25.84375 -21.195312 26.734375 -19.726562 27.359375 -18.0625 C 27.992188 -16.40625 28.3125 -14.703125 28.3125 -12.953125 C 28.3125 -11.898438 28.171875 -10.78125 27.890625 -9.59375 L 9.328125 -9.59375 C 10.023438 -8.40625 11.019531 -7.398438 12.3125 -6.578125 C 13.613281 -5.753906 15.015625 -5.34375 16.515625 -5.34375 C 18.015625 -5.34375 19.332031 -5.460938 20.46875 -5.703125 C 21.613281 -5.953125 22.691406 -6.269531 23.703125 -6.65625 L 26.109375 -2.203125 C 24.816406 -1.296875 23.335938 -0.597656 21.671875 -0.109375 C 20.015625 0.378906 18.242188 0.625 16.359375 0.625 C 14.296875 0.625 12.375 0.269531 10.59375 -0.4375 C 8.8125 -1.15625 7.253906 -2.125 5.921875 -3.34375 C 4.597656 -4.570312 3.550781 -6.023438 2.78125 -7.703125 C 2.007812 -9.378906 1.625 -11.164062 1.625 -13.0625 C 1.625 -14.914062 1.972656 -16.671875 2.671875 -18.328125 C 3.367188 -19.984375 4.335938 -21.429688 5.578125 -22.671875 C 6.828125 -23.921875 8.269531 -24.910156 9.90625 -25.640625 C 11.550781 -26.378906 13.316406 -26.75 15.203125 -26.75 Z M 21.125 -15.203125 C 20.707031 -16.710938 19.957031 -17.9375 18.875 -18.875 C 17.789062 -19.820312 16.566406 -20.296875 15.203125 -20.296875 C 13.804688 -20.296875 12.539062 -19.820312 11.40625 -18.875 C 10.269531 -17.9375 9.492188 -16.710938 9.078125 -15.203125 Z M 21.125 -15.203125 "/></g></g></g><g clip-path="url(#2d95491f79)"><path fill="#5cba47" d="M 242.613281 159.59375 L 218.890625 158.675781 L 218.890625 160.207031 Z M 242.613281 159.59375 " fill-opacity="1" fill-rule="nonzero"/></g><g clip-path="url(#b6fdf641e0)"><path fill="#5cba47" d="M 251.351562 172.480469 C 237.929688 172.480469 229.195312 159.441406 229.195312 159.441406 C 229.195312 159.441406 237.929688 146.40625 251.351562 146.40625 C 264.769531 146.40625 277.808594 159.441406 277.808594 159.441406 C 277.808594 159.441406 264.769531 172.480469 251.351562 172.480469 Z M 251.351562 172.480469 " fill-opacity="1" fill-rule="nonzero"/></g><g clip-path="url(#7bb2669094)"><g mask="url(#8807606a87)"><g transform="matrix(1, 0, 0, 1, 228, 146)"><g clip-path="url(#043e50a152)"><g clip-path="url(#b2e8c6d056)"><path fill="#000000" d="M 49.808594 13.441406 C 49.808594 13.441406 36.769531 0.40625 23.351562 0.40625 C 9.929688 0.40625 1.195312 13.441406 1.195312 13.441406 Z M 49.808594 13.441406 " fill-opacity="1" fill-rule="nonzero"/></g></g></g></g></g></svg>